<svg height="496pt" viewBox="0 0 496 496" width="496pt" xmlns="http://www.w3.org/2000/svg" xmlns:xlink="http://www.w3.org/1999/xlink"><linearGradient id="linear0" gradientUnits="userSpaceOnUse" x1="248" x2="248" y1="496" y2="0"><stop offset="0" stop-color="#9f2fff"/><stop offset="1" stop-color="#0bb1d3"/></linearGradient><path d="m464 96c17.648438 0 32-14.351562 32-32s-14.351562-32-32-32h-96v-32h-299.3125l-68.6875 68.6875v395.3125h224v32h272v-49.929688c0-17.710937-11.886719-33.511718-28.910156-38.429687l-75.089844-21.65625v-16.367187l7.0625-4.714844c10.679688-7.125 18.328125-17.558594 22.144531-29.429688 14.570313-2.417968 25.746094-14.632812 26.609375-29.664062 1.335938-4.296875 8.183594-28.160156 8.183594-65.808594v-11.097656l-25.382812 8.464844c-2.28125-10.816407-8.3125-28.953126-24.21875-50.167969l-7.765626-10.351563-9.527343 19.0625c-4.800781-3.023437-11.753907-6.679687-21.105469-10.023437v-89.886719zm-224-20.945312-22.113281-11.054688 22.113281-11.054688zm16-27.054688h128v32h-128zm144 0h16v32h-16zm80 16c0 8.824219-7.175781 16-16 16h-32v-32h32c8.824219 0 16 7.175781 16 16zm-416-36.6875v36.6875h-36.6875zm208 374.824219-19.089844 5.503906c-5.703125 1.648437-10.765625 4.597656-15.0625 8.359375h-189.847656v-48h224zm190.648438 20.878906c10.214843 2.945313 17.351562 12.433594 17.351562 23.054687v33.929688h-41.441406l-6.710938-33.566406-15.6875 3.140625 6.078125 30.425781h-124.476562l6.085937-30.433594-15.6875-3.140625-6.71875 33.574219h-41.441406v-33.929688c0-10.621093 7.136719-20.109374 17.351562-23.054687l74.953126-21.625 27.695312 46.152344 27.695312-46.160157zm-86.648438-33.230469-16 26.671875-16-26.671875v-9.816406c4.9375 2.597656 10.375 4.03125 16 4.03125s11.0625-1.433594 16-4.03125zm32-71.472656c0 13.398438-6.664062 25.839844-17.816406 33.28125l-19.96875 13.308594c-6.085938 4.050781-14.359375 4.050781-20.4375 0l-19.96875-13.308594c-11.152344-7.433594-17.808594-19.882812-17.808594-33.28125v-34.898438c0-6.292968 5.121094-11.414062 11.414062-11.414062 1.761719 0 3.539063.414062 5.105469 1.199219l31.480469 15.746093 31.464844-15.738281c1.582031-.800781 3.359375-1.207031 5.121094-1.207031 6.292968 0 11.414062 5.121094 11.414062 11.414062zm16-.535156v-27.546875c4.761719 2.777343 8 7.882812 8 13.777343 0 5.894532-3.238281 10.992188-8 13.769532zm-29.808594-96.273438 6.878906-13.761718c14.496094 23.496093 14.921876 40.113281 14.929688 40.257812v11.105469l23.785156-7.929688c-.457031 11.417969-1.546875 21.113281-2.761718 28.894531-4.261719-3.75-9.464844-6.429687-15.269532-7.496093-4.21875-9.734375-13.90625-16.574219-25.167968-16.574219-4.226563 0-8.457032 1-12.265626 2.886719l-24.320312 12.167969-24.335938-12.167969c-3.792968-1.886719-8.023437-2.886719-12.25-2.886719-11.269531 0-20.957031 6.839844-25.167968 16.574219-7.582032 1.394531-14.140625 5.496093-18.863282 11.21875-2.910156-8.097657-5.839843-18.984375-6.941406-32.546875l28.199219 9.402344-5.472656-16.410157c-3.671875-11.007812-5.945313-22.367187-6.800781-33.894531l35.816406 8.960938-9.007813-27.03125c50.929688 2.460937 70.992188 21.230468 71.160157 21.390624zm-106.191406 82.496094c0-5.886719 3.238281-11 8-13.777344v27.546875c-4.761719-2.769531-8-7.882812-8-13.769531zm64-122.824219c-12.855469-3.039062-28.703125-5.175781-48-5.175781h-11.097656l6.898437 20.703125-27.800781-6.949219v10.246094c0 12.023438 1.382812 23.953125 4.121094 35.609375l-20.121094-6.707031v11.097656c0 36.34375 12.480469 60.265625 16.273438 66.695312 1.246093 14.625 12.238281 26.417969 26.519531 28.785157 3.824219 11.863281 11.464843 22.304687 22.144531 29.429687l7.0625 4.707032v16.367187l-40 11.535156v-45.519531h-256v80h194.679688c-1.6875 4.433594-2.679688 9.160156-2.679688 14.070312v1.929688h-208v-368h64v-64h272v16h-105.886719l-64 32 64 32h105.886719zm-296-85.175781c-13.230469 0-24 10.769531-24 24s10.769531 24 24 24 24-10.769531 24-24-10.769531-24-24-24zm0 32c-4.40625 0-8-3.59375-8-8s3.59375-8 8-8 8 3.59375 8 8-3.59375 8-8 8zm0 32c-13.230469 0-24 10.769531-24 24s10.769531 24 24 24 24-10.769531 24-24-10.769531-24-24-24zm0 32c-4.40625 0-8-3.59375-8-8s3.59375-8 8-8 8 3.59375 8 8-3.59375 8-8 8zm0 32c-13.230469 0-24 10.769531-24 24s10.769531 24 24 24 24-10.769531 24-24-10.769531-24-24-24zm0 32c-4.40625 0-8-3.59375-8-8s3.59375-8 8-8 8 3.59375 8 8-3.59375 8-8 8zm0 32c-13.230469 0-24 10.769531-24 24s10.769531 24 24 24 24-10.769531 24-24-10.769531-24-24-24zm0 32c-4.40625 0-8-3.585938-8-8s3.59375-8 8-8 8 3.585938 8 8-3.59375 8-8 8zm64-224c-13.230469 0-24 10.769531-24 24s10.769531 24 24 24 24-10.769531 24-24-10.769531-24-24-24zm0 32c-4.40625 0-8-3.59375-8-8s3.59375-8 8-8 8 3.59375 8 8-3.59375 8-8 8zm0 32c-13.230469 0-24 10.769531-24 24s10.769531 24 24 24 24-10.769531 24-24-10.769531-24-24-24zm0 32c-4.40625 0-8-3.59375-8-8s3.59375-8 8-8 8 3.59375 8 8-3.59375 8-8 8zm0 32c-13.230469 0-24 10.769531-24 24s10.769531 24 24 24 24-10.769531 24-24-10.769531-24-24-24zm0 32c-4.40625 0-8-3.59375-8-8s3.59375-8 8-8 8 3.59375 8 8-3.59375 8-8 8zm0 32c-13.230469 0-24 10.769531-24 24s10.769531 24 24 24 24-10.769531 24-24-10.769531-24-24-24zm0 32c-4.40625 0-8-3.585938-8-8s3.59375-8 8-8 8 3.585938 8 8-3.59375 8-8 8zm64-224c-13.230469 0-24 10.769531-24 24s10.769531 24 24 24 24-10.769531 24-24-10.769531-24-24-24zm0 32c-4.40625 0-8-3.59375-8-8s3.59375-8 8-8 8 3.59375 8 8-3.59375 8-8 8zm0 32c-13.230469 0-24 10.769531-24 24s10.769531 24 24 24 24-10.769531 24-24-10.769531-24-24-24zm0 32c-4.40625 0-8-3.59375-8-8s3.59375-8 8-8 8 3.59375 8 8-3.59375 8-8 8zm0 32c-13.230469 0-24 10.769531-24 24s10.769531 24 24 24 24-10.769531 24-24-10.769531-24-24-24zm0 32c-4.40625 0-8-3.59375-8-8s3.59375-8 8-8 8 3.59375 8 8-3.59375 8-8 8zm0 32c-13.230469 0-24 10.769531-24 24s10.769531 24 24 24 24-10.769531 24-24-10.769531-24-24-24zm0 32c-4.40625 0-8-3.585938-8-8s3.59375-8 8-8 8 3.585938 8 8-3.59375 8-8 8zm-104 80h-16v-16h16zm176 0h-160v-16h160zm-96-352h-64v-16h64zm0 32h-64v-16h64zm0 0" fill="url(#linear0)"/></svg>