<svg id="Capa_1" enable-background="new 0 0 512 512" height="512" viewBox="0 0 512 512" width="512" xmlns="http://www.w3.org/2000/svg"><g><path d="m481 246.29v250.71c0 8.28-6.72 15-15 15h-420c-8.28 0-15-6.72-15-15v-250.71z" fill="#979fef"/><path d="m481 246.29v250.71c0 8.28-6.72 15-15 15h-210v-265.71z" fill="#6b77e8"/><g><g><path d="m196 242c-8.284 0-15-6.716-15-15 0-27.646 15.134-52.965 39.495-66.077 12.073-6.498 20.505-22.83 20.505-39.717v-16.206c0-8.284 6.716-15 15-15s15 6.716 15 15v16.206c0 28.311-14.243 54.27-36.286 66.134-14.627 7.872-23.714 23.069-23.714 39.66 0 8.284-6.716 15-15 15z" fill="#61729b"/></g></g><path d="m481 227v19.29l-225 160.71-225-160.71v-19.29c0-8.28 6.72-15 15-15h420c8.28 0 15 6.72 15 15z" fill="#fed843"/><path d="m481 227v19.29l-225 160.71v-195h210c8.28 0 15 6.72 15 15z" fill="#fabe2c"/><g><g><path d="m256 302c-8.284 0-15-6.716-15-15s6.716-15 15-15c24.813 0 45-20.187 45-45 0-12.02-4.681-23.321-13.181-31.82-5.857-5.858-5.858-15.355 0-21.213 5.857-5.858 15.355-5.858 21.213-.001 14.166 14.166 21.968 33 21.968 53.034 0 41.355-33.645 75-75 75z" fill="#47568c"/></g></g><g><path d="m256 0c-25.23 0-45 26.36-45 60s19.77 60 45 60 45-26.36 45-60-19.77-60-45-60z" fill="#47568c"/></g><path d="m301 60c0 33.64-19.77 60-45 60v-120c25.23 0 45 26.36 45 60z" fill="#29376d"/></g></svg>